. 
  
http://www.torrenting.com/        :     Greatest Movie Tracker on The Net!!!
 
http://www.Torrenting.com          :     Once & For all ;)


               www . Torrenting . Com 

(((((((((((((= Enjoy No RAR releases =))))))))))))))))))))


...................................NFO:....................................

.[img]http://img138.imageshack.us/img138/8261/fightert.jpg[/img]

[color=blue][size=5][b]The Fighter 2010 BDRip XVID AC3 HQ Hive-CM8[/b][/size][/color]



[b]Thx Hive

CM8 Doing It Right The First Time :D

Why download a touched up rip of a rip BRrip
Get the real deal BDRip
Enjoy

Source Bluray

Video: 720x304 @bitrate 1800 2pass
Audio: DTS to AC3 5.1 @448
Sample: yes included
Subs: yes english in srt /subs[/b]


[url]http://www.imdb.com/title/tt0964517/[/url]



General
Complete name                    : The.Fighter.2010.BDRip.XVID.AC3.HQ.Hive-CM8.avi
Format                           : AVI
Format/Info                      : Audio Video Interleave
File size                        : 1.82 GiB
Duration                         : 1h 55mn
Overall bit rate                 : 2 257 Kbps
Writing application              : Nandub v1.0rc2
Writing library                  : Nandub build 1853/release

Video
ID                               : 0
Format                           : MPEG-4 Visual
Format profile                   : Advanced Simple@L5
Format settings, BVOP            : Yes
Format settings, QPel            : Yes
Format settings, GMC             : No warppoints
Format settings, Matrix          : Default (H.263)
Muxing mode                      : Packed bitstream
Codec ID                         : XVID
Codec ID/Hint                    : XviD
Duration                         : 1h 55mn
Bit rate                         : 1 800 Kbps
Width                            : 720 pixels
Height                           : 304 pixels
Display aspect ratio             : 2.35:1
Frame rate                       : 23.976 fps
Color space                      : YUV
Chroma subsampling               : 4:2:0
Bit depth                        : 8 bits
Scan type                        : Progressive
Bits/(Pixel*Frame)               : 0.343
Stream size                      : 1.45 GiB (80%)
Writing library                  : XviD 1.2.1 (UTC 2008-12-04)

Audio
ID                               : 1
Format                           : AC-3
Format/Info                      : Audio Coding 3
Mode extension                   : CM (complete main)
Codec ID                         : 2000
Duration                         : 1h 55mn
Bit rate mode                    : Constant
Bit rate                         : 448 Kbps
Channel(s)                       : 6 channels
Channel positions                : Front: L C R, Side: L R, LFE
Sampling rate                    : 48.0 KHz
Bit depth                        : 16 bits
Stream size                      : 371 MiB (20%)
Alignment                        : Split accross interleaves
Interleave, duration             : 42 ms (1.00 video frame)
Interleave, preload duration     : 500 ms



Mark Wahlberg ... Mickey Ward
Christian Bale ... Dicky Eklund
Amy Adams ... Charlene Fleming
Melissa Leo ... Alice Ward
Mickey O'Keefe ... Himself
Jack McGee ... George Ward
Melissa McMeekin ... 'Little Alice' Eklund
Bianca Hunter ... Cathy 'Pork' Eklund
Erica McDermott ... Cindy 'Tar' Ecklund
Jill Quigg ... Donna Eklund Jaynes
Dendrie Taylor ... Gail 'Red Dog' Eckland



A look at the early years of boxer "Irish" Micky Ward and his brother who helped 
train him before going pro in the mid 1980s.
The Fighter, is a drama about boxer "Irish" Micky Ward's unlikely road to the world 
light welterweight title. His Rocky-like rise was shepherded by half-brother Dicky, 
a boxer-turned-trainer who rebounded in life after nearly being KO'd by drugs and crime. 



[img]http://img98.imageshack.us/img98/5265/ffifififii.png[/img]
[img]http://img251.imageshack.us/img251/7599/ffififii.png[/img]
[img]http://img812.imageshack.us/img812/2598/ffifii.png[/img]
[img]http://img849.imageshack.us/img849/9489/ffii.png[/img]
[img]http://img849.imageshack.us/img849/6599/53860374.png[/img]
[img]http://img834.imageshack.us/img834/9481/ffififififii.png[/img]





Greetz

iNK,LUSi,,MAGNET,CLASSiFiED,THC,LEGi0N,T0XiC,IMAGiNE,ViSiON,WBZ,FLAWL3SS,NOVA
Vik,Rapeseed,D2U,SAFC,goldadvance,MEMORY100,KaN1vE,Unevano,Pinnz,Wayne,Mr Hive
and all P2P groups 
Great Work Guys :D

CM8@hushmail.com